<svg xmlns="http://www.w3.org/2000/svg" width="320" height="200" viewBox="0 0 320 200" aria-hidden="true"><ellipse cx="160" cy="176" rx="118" ry="10" fill="#14101F" opacity=".06"/><g transform="rotate(-8 98 110)"><rect x="64.0" y="76.0" width="76" height="76" rx="19.8" fill="#14101F"/><rect x="60.0" y="72.0" width="76" height="76" rx="19.8" fill="#FFFFFF" stroke="#14101F" stroke-width="2.5"/><g transform="translate(76.72 88.72) scale(1.7733)" fill="none" stroke="#14101F" stroke-width="1.410" stroke-linecap="round" stroke-linejoin="round"><rect x="4" y="5.5" width="16" height="14" rx="2"/><path d="M4 10h16M8.5 3.5v3M15.5 3.5v3"/></g></g><g transform="rotate(8 222 110)"><rect x="188.0" y="76.0" width="76" height="76" rx="19.8" fill="#14101F"/><rect x="184.0" y="72.0" width="76" height="76" rx="19.8" fill="#FFFFFF" stroke="#14101F" stroke-width="2.5"/><g transform="translate(200.72 88.72) scale(1.7733)" fill="none" stroke="#14101F" stroke-width="1.410" stroke-linecap="round" stroke-linejoin="round"><path d="M4 8.5h3.5l1.5-2.5h6l1.5 2.5H20v10H4z"/><circle cx="12" cy="13.2" r="3.2"/></g></g><g transform="rotate(0 160 96)"><rect x="118.0" y="54.0" width="92" height="92" rx="23.9" fill="#14101F"/><rect x="114.0" y="50.0" width="92" height="92" rx="23.9" fill="#FFFFFF" stroke="#14101F" stroke-width="2.5"/><g transform="translate(134.24 70.24) scale(2.1467)" fill="none" stroke="#14101F" stroke-width="1.165" stroke-linecap="round" stroke-linejoin="round"><path d="M3.5 7.5h17v3a1.8 1.8 0 0 0 0 3v3h-17v-3a1.8 1.8 0 0 0 0-3z"/><path d="M14.5 8v8" stroke-dasharray="1.6 2.4"/></g><circle cx="196.0" cy="60.0" r="9.7" fill="#FF6A13" stroke="#FFFFFF" stroke-width="3"/></g></svg>