<svg xmlns="http://www.w3.org/2000/svg" width="320" height="200" viewBox="0 0 320 200" aria-hidden="true"><ellipse cx="160" cy="176" rx="118" ry="10" fill="#14101F" opacity=".06"/><g transform="rotate(-8 98 110)"><rect x="64.0" y="76.0" width="76" height="76" rx="19.8" fill="#14101F"/><rect x="60.0" y="72.0" width="76" height="76" rx="19.8" fill="#FFFFFF" stroke="#14101F" stroke-width="2.5"/><g transform="translate(76.72 88.72) scale(1.7733)" fill="none" stroke="#14101F" stroke-width="1.410" stroke-linecap="round" stroke-linejoin="round"><path d="M12 4.5l2.3 4.8 5.2.7-3.8 3.6.9 5.2-4.6-2.5-4.6 2.5.9-5.2L4.5 10l5.2-.7z"/></g></g><g transform="rotate(8 222 110)"><rect x="188.0" y="76.0" width="76" height="76" rx="19.8" fill="#14101F"/><rect x="184.0" y="72.0" width="76" height="76" rx="19.8" fill="#FFFFFF" stroke="#14101F" stroke-width="2.5"/><g transform="translate(200.72 88.72) scale(1.7733)" fill="none" stroke="#14101F" stroke-width="1.410" stroke-linecap="round" stroke-linejoin="round"><path d="M4.5 7.5h14a1.5 1.5 0 0 1 1.5 1.5v9a1.5 1.5 0 0 1-1.5 1.5h-14z"/><path d="M4.5 7.5l10-3v3"/><circle cx="16" cy="13.5" r="1"/></g></g><g transform="rotate(0 160 96)"><rect x="118.0" y="54.0" width="92" height="92" rx="23.9" fill="#14101F"/><rect x="114.0" y="50.0" width="92" height="92" rx="23.9" fill="#FFFFFF" stroke="#14101F" stroke-width="2.5"/><g transform="translate(134.24 70.24) scale(2.1467)" fill="none" stroke="#14101F" stroke-width="1.165" stroke-linecap="round" stroke-linejoin="round"><path d="M4 7h9M17 7h3M4 17h3M11 17h9"/><circle cx="15" cy="7" r="2"/><circle cx="9" cy="17" r="2"/></g><circle cx="196.0" cy="60.0" r="9.7" fill="#FF6A13" stroke="#FFFFFF" stroke-width="3"/></g></svg>