<svg xmlns="http://www.w3.org/2000/svg" width="480" height="220" viewBox="0 0 480 220" aria-hidden="true"><path d="M24 190H456" stroke="#14101F" stroke-width="3" stroke-linecap="round" stroke-dasharray="1 12"/><path fill="#14101F" d="M221 118A71 71 0 1 1 150 47A13 13 0 0 1 150 73A45 45 0 1 0 195 118A13 13 0 0 1 221 118Z"/><path d="M222 70c40-22 92-18 128 18c18 18 28 42 40 70" fill="none" stroke="#CDC6D8" stroke-width="3" stroke-linecap="round" stroke-dasharray="5 9"/><circle cx="392" cy="162" r="26" fill="#FF6A13"/><path d="M360 190c9 0 15-4 18-9M424 190c-6 0-11-3-14-7" stroke="#14101F" stroke-width="3" stroke-linecap="round" fill="none"/><path d="M378 150l-4-3M406 150l4-3" stroke="#14101F" stroke-width="2.5" stroke-linecap="round"/><circle cx="182" cy="86" r="4" fill="#CDC6D8"/><circle cx="198" cy="76" r="3" fill="#CDC6D8"/></svg>